<svg width="200" height="48" fill="none" xmlns="http://www.w3.org/2000/svg"><g clip-path="url(#a)"><path fill-rule="evenodd" clip-rule="evenodd" d="M18.915.253c7.242-1.391 14.297 3.09 15.757 10.01C37.27 22.63 23.962 30 11.02 25.826c1.952-.713 3.426-2.045 3.763-3.627-4.456 2.614-10.063 2.647-14.782.477 3.042-.529 9.114-3.567 10.15-6.304-2.443.091-4.873 1.11-6.63 2.796.91-5.52 5.769-9.304 10.797-10.303-1.548-1.144-4.301-.935-5.573.228 1.373-4.364 5.156-7.88 10.17-8.84Z" fill="#FFB301"/><path d="M59.395 17.509c0 1.267-.219 2.333-.656 3.198a5.668 5.668 0 0 1-1.76 2.052c-.736.523-1.601.895-2.596 1.116-.994.221-2.038.332-3.132.332-.895 0-1.76-.08-2.596-.242-.815-.16-1.63-.372-2.446-.633V19.59c.636.343 1.412.654 2.327.936.915.261 1.87.392 2.864.392.477 0 .935-.05 1.372-.15a3.56 3.56 0 0 0 1.164-.483c.338-.242.606-.544.805-.906.219-.382.328-.855.328-1.418 0-.583-.159-1.076-.477-1.478a4.052 4.052 0 0 0-1.163-1.086 7.435 7.435 0 0 0-1.492-.755 58.64 58.64 0 0 1-1.432-.633 21.711 21.711 0 0 1-1.67-.845 6.672 6.672 0 0 1-1.433-1.147 5.616 5.616 0 0 1-1.014-1.63C46.129 9.765 46 9.02 46 8.156c0-1.106.209-2.041.627-2.806a5.2 5.2 0 0 1 1.7-1.9 7.125 7.125 0 0 1 2.446-1.087c.935-.241 1.91-.362 2.924-.362 1.65 0 3.182.251 4.594.754v3.53a10.952 10.952 0 0 0-2.058-.724c-.676-.18-1.442-.271-2.297-.271-.398 0-.816.04-1.253.12-.418.06-.806.182-1.164.363a2.478 2.478 0 0 0-.865.784c-.219.342-.328.785-.328 1.328 0 .523.159.975.477 1.357.338.362.736.684 1.194.966.477.281.974.533 1.491.754.537.201 1.005.392 1.402.573.557.262 1.104.564 1.641.906a5.994 5.994 0 0 1 1.462 1.176 5.515 5.515 0 0 1 1.014 1.66c.259.623.388 1.368.388 2.233ZM73.08 23.845h-5.162L60.22 2.362h4.505l5.847 17.953h.06l6.056-17.953h4.326l-7.936 21.483ZM96.241 23.845 87.082 12.68h-.06v11.164h-4.176V2.362h4.177V12.47h.06l8.591-10.108h5.162l-9.04 10.017 9.845 11.466h-5.4ZM103.717 23.845v-4.043h4.117v4.043h-4.117ZM131.133 12.983c0 1.91-.288 3.56-.865 4.948-.576 1.368-1.392 2.494-2.446 3.38-1.054.864-2.317 1.508-3.789 1.93-1.472.403-3.093.604-4.863.604h-7.19V2.362h7.31c1.73 0 3.321.211 4.773.634 1.452.402 2.695 1.036 3.729 1.9 1.054.845 1.87 1.942 2.446 3.29.597 1.327.895 2.926.895 4.797Zm-4.325.09c0-1.207-.179-2.273-.537-3.198-.358-.925-.866-1.7-1.522-2.323a5.94 5.94 0 0 0-2.297-1.388c-.895-.322-1.89-.483-2.983-.483h-3.312v14.845h3.043c2.427 0 4.296-.604 5.609-1.81 1.332-1.207 1.999-3.088 1.999-5.643ZM134.004 5.892v-3.53h3.998v3.53h-3.998Zm0 17.953V8.275h3.998v15.57h-3.998ZM157.153 21.974c0 2.776-.766 4.808-2.298 6.095-1.511 1.287-3.739 1.931-6.682 1.931-1.074 0-2.049-.09-2.924-.272a20.419 20.419 0 0 1-2.566-.724v-3.47c.895.443 1.75.785 2.566 1.026.835.242 1.78.362 2.834.362 1.591 0 2.844-.432 3.759-1.297s1.373-2.102 1.373-3.711v-.392h-.06a6.34 6.34 0 0 1-2.297 1.75 7.006 7.006 0 0 1-2.835.573c-1.093 0-2.088-.201-2.983-.604a7.298 7.298 0 0 1-2.267-1.69 7.65 7.65 0 0 1-1.432-2.443 8.896 8.896 0 0 1-.507-3.018c0-1.086.169-2.122.507-3.107.358-1.006.855-1.881 1.491-2.625a7.177 7.177 0 0 1 2.298-1.78c.915-.443 1.929-.664 3.043-.664 1.193 0 2.227.221 3.102.664.895.422 1.611 1.015 2.148 1.78h.06V8.276h3.67v13.698Zm-3.968-8.448a3.63 3.63 0 0 0-.537-.815 3.617 3.617 0 0 0-.836-.814 3.834 3.834 0 0 0-1.104-.574 3.87 3.87 0 0 0-1.402-.241c-.676 0-1.283.14-1.82.422a4.376 4.376 0 0 0-1.372 1.117 5.378 5.378 0 0 0-.835 1.569 6.036 6.036 0 0 0-.269 1.78c0 .664.12 1.287.358 1.87a5.3 5.3 0 0 0 .925 1.479c.398.422.855.754 1.372.996a3.71 3.71 0 0 0 2.745.181 5.66 5.66 0 0 0 1.134-.483c.358-.221.676-.463.954-.724a3.19 3.19 0 0 0 .687-.905v-4.858ZM160.517 5.892v-3.53h3.997v3.53h-3.997Zm0 17.953V8.275h3.997v15.57h-3.997ZM177.638 23.815c-.338.1-.815.19-1.432.271-.616.08-1.213.12-1.79.12-1.949 0-3.331-.442-4.147-1.327-.815-.905-1.223-2.202-1.223-3.892v-7.634h-2.595V8.276h2.595v-3.53l3.998-1.268v4.798h4.445v3.077h-4.445v7.06c0 .906.199 1.6.597 2.083.417.462 1.004.694 1.76.694.338 0 .726-.04 1.163-.121a7.55 7.55 0 0 0 1.074-.302v3.048ZM189.18 23.845v-2.293h-.059a7.943 7.943 0 0 1-2.029 1.9c-.756.503-1.69.755-2.804.755-.816 0-1.571-.11-2.268-.332a5.34 5.34 0 0 1-1.819-.905 4.424 4.424 0 0 1-1.164-1.539c-.278-.623-.418-1.328-.418-2.112 0-1.147.269-2.062.806-2.746a5.298 5.298 0 0 1 1.939-1.599 8.041 8.041 0 0 1 2.417-.754c.855-.141 1.591-.211 2.207-.211.577 0 1.134.06 1.671.18.537.101.945.202 1.223.302v-.694c0-1.025-.338-1.77-1.014-2.232-.676-.463-1.542-.694-2.596-.694-.974 0-1.859.15-2.655.452a9.77 9.77 0 0 0-2.148 1.056V9.362c.637-.322 1.432-.644 2.387-.965.954-.322 2.009-.483 3.162-.483 1.034 0 1.959.12 2.775.362.835.241 1.541.623 2.118 1.146.577.523 1.014 1.187 1.312 1.992.319.804.478 1.77.478 2.896v9.535h-3.521Zm-.268-7.03c-.278-.04-.627-.111-1.044-.212a4.706 4.706 0 0 0-1.313-.18c-.398 0-.835.04-1.313.12-.457.06-.895.191-1.312.392a2.947 2.947 0 0 0-1.015.845c-.258.342-.387.785-.387 1.328 0 .704.258 1.247.775 1.63a3.017 3.017 0 0 0 1.79.572c.318 0 .657-.05 1.015-.15.377-.121.735-.272 1.074-.453.358-.181.686-.382.984-.604.318-.24.567-.472.746-.694v-2.594ZM196.002 23.845V2.362H200v21.483h-3.998ZM51.034 45.682a5.707 5.707 0 0 1-2.006-.346 4.822 4.822 0 0 1-1.596-.98 4.44 4.44 0 0 1-1.049-1.532c-.255-.602-.383-1.271-.383-2.008 0-.719.132-1.375.392-1.968s.622-1.1 1.071-1.518c.45-.422.988-.746 1.6-.98A5.495 5.495 0 0 1 51.03 36c.168 0 .344.009.542.018.199.013.393.036.587.067.194.032.383.072.573.117.19.05.361.108.515.18v1.249a2.523 2.523 0 0 0-.493-.23 4.5 4.5 0 0 0-.56-.17 5.302 5.302 0 0 0-.582-.112 4.033 4.033 0 0 0-2.054.243 3.634 3.634 0 0 0-1.212.79c-.34.337-.608.737-.798 1.195-.194.463-.29.957-.29 1.496 0 .562.1 1.074.303 1.532.203.458.476.854.829 1.186.348.328.75.584 1.199.768a3.777 3.777 0 0 0 1.992.238c.207-.026.415-.062.622-.112.207-.05.405-.108.595-.17.19-.068.344-.135.463-.207V45.3c-.163.072-.349.13-.547.18-.203.049-.406.085-.613.116a7.52 7.52 0 0 1-1.066.086Z" fill="#fff"/><path d="M56.463 39.765v5.76h-1.137v-5.76h-2.248v-.948h5.629v.948h-2.244ZM59.191 38.817h1.252l1.9 5.185h.026l1.702-5.185h1.15L61.941 48h-1.084l.904-2.475-2.57-6.708ZM70.97 47.498v-1.972h-5.007v1.972H64.88v-2.92h.776c.18-.23.357-.67.529-1.326.172-.651.282-1.482.321-2.493l.089-1.946h4.685v5.764h.776v2.92H70.97Zm-.828-7.732h-2.49l-.053 1.222c-.018.36-.049.714-.089 1.074-.044.355-.097.692-.163 1.01a9.023 9.023 0 0 1-.22.877c-.08.265-.168.471-.265.633h3.28v-4.816ZM77.644 45.525V40.34h-.035l-3.191 5.185H73.1v-6.708h1.137v5.171h.04l3.186-5.17h1.318v6.707h-1.137ZM81.985 42.802a1.674 1.674 0 0 1-.653-.215 1.951 1.951 0 0 1-.85-1.02 1.856 1.856 0 0 1-.124-.67c0-.296.058-.575.163-.826.106-.256.256-.476.45-.66.194-.185.423-.329.697-.436.273-.104.564-.158.885-.158h2.993v6.708H84.41V43h-1.186l-2.195 2.525h-1.485l2.442-2.71v-.013Zm2.424-3.037h-1.728a1.031 1.031 0 0 0-.81.369 1.362 1.362 0 0 0-.221.382c-.053.139-.075.283-.075.422 0 .373.123.66.375.871.25.212.546.32.89.32h1.574v-2.364h-.005ZM90.873 45.523v-9.367h2.429c.454 0 .877.04 1.265.126.388.085.723.216 1 .4.278.184.498.427.653.723.154.301.233.66.233 1.092 0 .642-.167 1.132-.489 1.474-.326.34-.785.588-1.366.736v.054c.617.063 1.124.288 1.516.679.392.39.586.912.586 1.559 0 .498-.097.911-.286 1.244-.19.328-.446.588-.763.777a3.302 3.302 0 0 1-1.11.396 7.551 7.551 0 0 1-1.345.112h-2.323v-.005Zm1.217-8.338v3.001h.81c.3 0 .591-.013.873-.045a2.39 2.39 0 0 0 .75-.202c.22-.108.392-.26.524-.467.128-.207.194-.49.194-.85 0-.296-.057-.538-.167-.723a1.239 1.239 0 0 0-.428-.43 1.635 1.635 0 0 0-.573-.217 3.172 3.172 0 0 0-.6-.058H92.09v-.009Zm0 4.026v3.288h1.005c.295 0 .577-.018.86-.058.281-.04.528-.117.748-.238a1.4 1.4 0 0 0 .525-.481c.128-.202.194-.467.194-.804 0-.378-.075-.679-.22-.908-.146-.229-.335-.4-.573-.521a2.368 2.368 0 0 0-.794-.23 7.226 7.226 0 0 0-.877-.053h-.868v.005ZM102.162 45.523v-.908h-.027c-.11.113-.238.234-.374.355a3.316 3.316 0 0 1-.459.342 2.882 2.882 0 0 1-.555.265 1.977 1.977 0 0 1-.666.103c-.753 0-1.34-.188-1.75-.57-.405-.382-.612-.894-.612-1.546 0-.305.053-.575.154-.809a1.96 1.96 0 0 1 .401-.597 2.18 2.18 0 0 1 .555-.409 3.82 3.82 0 0 1 .635-.252 4.163 4.163 0 0 1 1.151-.157c.317 0 .612.032.881.1.273.067.454.12.551.165v-.512c0-.503-.128-.871-.388-1.119-.26-.247-.661-.368-1.212-.368-.463 0-.855.085-1.168.256-.313.17-.577.35-.793.535v-.989a4.33 4.33 0 0 1 .785-.454c.184-.085.392-.152.616-.21.23-.059.468-.086.719-.086.921 0 1.578.225 1.975.679.396.453.595 1.136.595 2.044v4.142h-1.014Zm-.115-3.105a4.337 4.337 0 0 0-.427-.143 2.085 2.085 0 0 0-.631-.095 5.16 5.16 0 0 0-.568.04c-.234.028-.459.09-.68.185a1.68 1.68 0 0 0-.568.413c-.158.18-.238.427-.238.742 0 .184.036.35.11.494.075.144.172.27.291.368a1.343 1.343 0 0 0 .851.306c.154 0 .317-.023.489-.072.172-.05.344-.117.512-.202.167-.09.326-.184.476-.292.15-.104.277-.22.379-.342V42.42h.004ZM109.164 45.525v-5.76h-2.429v1.905c0 .431-.017.876-.044 1.343a4.832 4.832 0 0 1-.251 1.285 2.31 2.31 0 0 1-.613.962c-.273.251-.648.373-1.128.373a2.27 2.27 0 0 1-.379-.032 4.351 4.351 0 0 1-.304-.058v-1.011c.044.018.127.036.251.058.123.023.247.036.37.036a.69.69 0 0 0 .498-.184c.124-.121.225-.333.296-.633.07-.297.119-.697.145-1.191a43.74 43.74 0 0 0 .031-1.86v-1.932h4.699v6.699h-1.142ZM112.822 42.434c0 .342.066.656.194.935.132.283.304.521.524.723.221.202.468.36.75.472.277.117.568.17.873.17.189 0 .396-.022.617-.067a5.394 5.394 0 0 0 1.168-.36c.167-.076.286-.143.361-.201v1.159a9.318 9.318 0 0 1-.917.283c-.361.09-.789.139-1.278.139-.577 0-1.084-.085-1.525-.265a3.012 3.012 0 0 1-1.102-.737 3.09 3.09 0 0 1-.661-1.137 4.639 4.639 0 0 1-.221-1.464c0-.499.08-.957.238-1.375a3.33 3.33 0 0 1 .662-1.078c.277-.301.612-.54.996-.71.383-.17.802-.256 1.26-.256.499 0 .935.085 1.314.256.375.17.683.404.93.706.247.296.428.65.551 1.055.123.41.181.85.181 1.326v.43h-4.915v-.004Zm3.703-.871c0-.26-.045-.517-.128-.755a1.842 1.842 0 0 0-.362-.624 1.76 1.76 0 0 0-.56-.423 1.631 1.631 0 0 0-.731-.157c-.3 0-.564.058-.794.18-.229.117-.423.27-.586.458-.163.189-.291.4-.383.633a2.486 2.486 0 0 0-.163.692h3.707v-.004ZM125.549 42.079c0 .498-.075.966-.229 1.401-.15.436-.366.818-.644 1.146a3.04 3.04 0 0 1-1.009.777 3.015 3.015 0 0 1-1.323.283 2.62 2.62 0 0 1-1.243-.31c-.392-.206-.7-.444-.925-.719h-.027V48h-1.124v-9.183h1.071v.948h.027c.106-.112.22-.234.357-.364.132-.126.291-.247.472-.355a2.561 2.561 0 0 1 1.384-.39c.462 0 .89.085 1.282.255.393.171.732.41 1.018.71.291.301.512.665.67 1.078.159.423.243.881.243 1.38Zm-1.217.067c0-.341-.048-.67-.141-.98a2.415 2.415 0 0 0-.418-.808 2.046 2.046 0 0 0-.679-.548 2.014 2.014 0 0 0-.917-.202c-.309 0-.573.036-.793.112-.221.076-.406.17-.56.292a1.86 1.86 0 0 0-.388.386 9.31 9.31 0 0 0-.282.41v2.659c.088.157.189.314.313.467a2.259 2.259 0 0 0 1.009.697c.207.071.445.112.705.112a1.97 1.97 0 0 0 1.583-.741c.185-.23.326-.508.427-.823.093-.323.141-.665.141-1.033ZM131.371 45.525V40.34h-.04l-3.187 5.185h-1.318v-6.708h1.137v5.171h.04l3.187-5.17h1.318v6.707h-1.137ZM135.711 42.802a1.676 1.676 0 0 1-.652-.215 1.974 1.974 0 0 1-.978-1.69c0-.296.057-.575.163-.826.105-.256.26-.476.454-.66.194-.185.427-.329.696-.436a2.46 2.46 0 0 1 .882-.158h2.997v6.708h-1.137V43h-1.186l-2.195 2.525h-1.485l2.441-2.71v-.013Zm2.425-3.037h-1.728a1.033 1.033 0 0 0-.811.369 1.267 1.267 0 0 0-.221.382c-.052.139-.074.283-.074.422 0 .373.123.66.374.871.247.212.547.32.891.32h1.573v-2.364h-.004ZM145.908 40.707h-.053v4.816h-1.212v-9.367h1.212v4.421h.053l4.297-4.42h1.561l-4.417 4.407 4.879 4.96h-1.6l-4.72-4.817ZM158.935 42.169c0 .471-.08.925-.238 1.347-.159.427-.388.8-.684 1.119a3.29 3.29 0 0 1-1.075.764 3.442 3.442 0 0 1-1.419.283 3.43 3.43 0 0 1-1.42-.283 3.322 3.322 0 0 1-1.08-.764 3.433 3.433 0 0 1-.687-1.119 3.829 3.829 0 0 1-.238-1.347c0-.5.075-.966.233-1.393.155-.432.379-.8.67-1.114.296-.31.653-.557 1.08-.737a3.65 3.65 0 0 1 1.437-.27c.534 0 1.014.09 1.437.27.428.18.785.427 1.08.737.291.31.516.682.67 1.114.159.431.234.894.234 1.392Zm-1.213 0c0-.369-.057-.71-.163-1.02a2.55 2.55 0 0 0-.449-.809 2.11 2.11 0 0 0-.697-.54 2.04 2.04 0 0 0-.894-.197c-.327 0-.626.068-.9.198-.268.13-.502.31-.696.539-.194.23-.344.499-.45.809-.105.31-.163.651-.163 1.02 0 .341.049.669.141.979.093.31.238.584.428.822.189.238.423.422.696.562.274.134.587.202.944.202.352 0 .665-.068.943-.202.278-.135.507-.324.692-.562.185-.238.326-.512.427-.822.093-.31.141-.634.141-.98ZM165.737 45.525v-5.261h-.027l-2.155 2.579h-.013l-2.169-2.579h-.013v5.26h-1.137v-6.707h1.304l2.015 2.512h.013l2.001-2.512h1.305v6.708h-1.124ZM170.087 42.802a1.676 1.676 0 0 1-.652-.215 1.964 1.964 0 0 1-.851-1.02 2.05 2.05 0 0 1 .49-2.156c.194-.185.427-.329.696-.436.269-.104.564-.158.882-.158h2.993v6.708h-1.138V43h-1.19l-2.195 2.525h-1.485l2.437-2.71v-.013h.013Zm2.429-3.037h-1.732a1.033 1.033 0 0 0-.811.369 1.357 1.357 0 0 0-.221.382c-.052.139-.079.283-.079.422 0 .373.124.66.375.871.251.212.546.32.89.32h1.574v-2.364h.004ZM176.424 39.765v5.76h-1.137v-6.708h4.298v.948h-3.161ZM184.968 45.525V40.34h-.039l-3.187 5.185h-1.318v-6.708h1.137v5.171h.04l3.187-5.17h1.317v6.707h-1.137ZM192.131 45.525V42.46h-3.306v3.064h-1.137v-6.708h1.137v2.696h3.306v-2.696h1.137v6.708h-1.137ZM198.985 45.523v-.908h-.026c-.115.113-.238.234-.375.355a3.024 3.024 0 0 1-1.009.607 1.977 1.977 0 0 1-.666.103c-.758 0-1.34-.188-1.749-.57-.406-.382-.613-.894-.613-1.546 0-.305.053-.575.154-.809.102-.233.238-.43.401-.597.163-.166.348-.301.556-.409.207-.103.418-.189.63-.252a4.282 4.282 0 0 1 1.15-.157c.318 0 .613.032.886.1.274.067.454.12.547.165v-.512c0-.503-.128-.871-.388-1.119-.26-.247-.661-.368-1.212-.368-.463 0-.855.085-1.168.256-.313.17-.582.35-.794.535v-.989c.071-.053.168-.12.305-.202a5.09 5.09 0 0 1 .476-.251 3.62 3.62 0 0 1 .621-.211 2.89 2.89 0 0 1 .719-.086c.921 0 1.578.225 1.974.679.397.453.595 1.136.595 2.044v4.142h-1.014Zm-.114-3.105a5.033 5.033 0 0 0-.423-.143 2.092 2.092 0 0 0-.635-.095c-.145 0-.335.014-.569.04a2.45 2.45 0 0 0-.678.185c-.221.099-.41.234-.569.413-.163.18-.238.427-.238.742 0 .184.035.35.11.494.075.144.168.27.291.368a1.343 1.343 0 0 0 .851.306c.154 0 .317-.023.489-.072.172-.05.344-.117.511-.202a4.13 4.13 0 0 0 .476-.292c.15-.104.278-.22.384-.342V42.42Z" fill="#fff"/></g><defs><clipPath id="a"><path fill="#fff" d="M0 0h200v48H0z"/></clipPath></defs></svg>